<?xml version="1.0" encoding="utf-8"?>
<svg xmlns="http://www.w3.org/2000/svg" version="1.1" viewBox="0 0 1000 728">
	<title>A map showing from top to bottom a body of water marked with the word “River,” a slough coming into the river, a creek that goes into the slough and two roads crossing each other. A small square indicates the presence of a building located between the crossroads and the creek. An X mark is placed to the right of the building, touching the crooked line that represents the creek, accompanied by the text “2–3 miles, Greenland.” To the left of the building is an arrow or direction marker pointing north.</title>
	<path d="M620.31775 723.98595c-17.47602-12.47725-18.60992-13.10668-19.75714-10.96709-.59409 1.10798-1.22058 2.18729-1.39221 2.39848-.48865.60125-18.41686-11.30789-18.41686-12.23374 0-1.26371-11.26238-8.24164-15.77575-9.77431-2.202-.74777-5.48138-1.36147-7.2875-1.36378-1.80612-.002-4.93574-1.01133-6.95471-2.2423-2.01896-1.23096-4.32748-2.23812-5.13005-2.23812-.80255 0-2.6823-1.32564-4.17722-2.94587-1.49492-1.62023-5.82381-4.35269-9.61978-6.07214-4.30583-1.9504-7.1807-4.00509-7.64334-5.46279-.40788-1.28507-1.24622-2.3365-1.86301-2.3365-1.59342 0-19.51237-17.6736-23.00274-22.68777-1.60366-2.3038-4.49941-8.17525-6.43498-13.04766-4.95551-12.4745-13.00784-26.4657-16.63466-28.90327-5.18079-3.48198-8.71277-9.98739-8.71277-16.0477 0-2.99609-.61923-5.82417-1.40145-6.40058-3.39113-2.49887-18.10377-6.0373-27.09373-6.51612-5.36249-.28561-10.10002-.73503-10.52788-.99871-.42784-.26367-9.85924-2.60909-20.95866-5.21204-11.09942-2.60294-23.7124-5.87863-28.02884-7.27928-14.42132-4.67963-16.71992-5.07316-36.36862-6.22631-12.69976-.74534-24.29022-2.15224-33.07403-4.01469-7.4375-1.57698-14.81199-3.10883-16.38775-3.40408-2.50368-.46914-3.36413.28824-6.82222 6.00502-2.17645 3.59803-4.98781 8.55994-6.24747 11.02648-1.25965 2.46654-3.09425 5.99817-4.07689 7.84807-2.5094 4.72419-7.84427 16.61695-11.31388 25.22145-1.6152 4.00564-4.28954 9.30309-5.94298 11.77212-1.65343 2.46901-4.41187 7.43259-6.12987 11.03016-1.86607 3.90768-3.68902 6.34109-4.52802 6.04436-2.29495-.81166-1.0678-7.35772 2.54352-13.56799 4.38676-7.54377 8.94535-17.21996 8.94535-18.98762 0-2.16573 14.50654-30.52525 20.66274-40.3946 6.15865-9.87327 6.08941-10.12238-3.14814-11.3257-3.15837-.41142-9.61045-1.72915-14.33794-2.92828-4.7275-1.19913-9.32678-2.18024-10.22065-2.18024-.95861 0-4.71575 6.09307-9.16017 14.85529-8.36282 16.4874-9.05621 17.51165-10.72525 15.84261-.7764-.7764-.61258-2.64587.51085-5.83 2.23533-6.33562 1.06227-5.9448-1.83833.61246-1.28933 2.91478-4.2178 8.0861-6.5077 11.49183-2.28989 3.40573-5.78838 9.19919-7.77441 12.87436-1.98605 3.67516-4.57892 8.04146-5.76195 9.70288-1.18303 1.66141-2.1724 3.44738-2.1986 3.96883-.0262.52145-2.2713 4.47971-4.98911 8.79615-2.71782 4.31644-6.97244 11.19487-9.45472 15.28539-2.48229 4.0905-5.30147 7.73977-6.26487 8.10946-2.4873.95446-3.42229-2.33624-1.32327-4.65729.95512-1.05613 3.35503-5.19963 5.33315-9.20775 4.13759-8.38377 21.05506-37.37849 26.16624-44.84615 1.89922-2.77485 4.47426-6.811 5.72229-8.96922 5.37732-9.29904 7.08356-11.94942 13.60596-21.13487 3.78705-5.33327 6.65825-10.07525 6.38047-10.53772-.27779-.46248-1.72345-.84087-3.21257-.84087s-9.50236-2.24723-17.80719-4.99383c-8.30484-2.74661-20.71456-6.25868-27.57715-7.8046-6.8626-1.54591-15.09033-4.04781-18.28384-5.55978-3.19352-1.51197-7.82448-3.35693-10.29102-4.09992-2.46653-.74299-5.99817-1.99565-7.84807-2.7837-4.32215-1.84121-20.24206-3.91144-30.06457-3.9096-8.02983.002-11.97869-1.27595-11.97869-3.8751 0-2.1711 7.18771-4.31139 14.55134-4.33295 7.32669-.0214 27.41846 4.17336 34.47335 7.19743 2.73712 1.17327 5.71257 2.13321 6.61212 2.13321.89953 0 4.76774 1.44014 8.59598 3.20033 3.82826 1.76018 10.74436 4.07828 15.36911 5.15133 14.4636 3.35589 24.89012 6.27774 34.58891 9.69297 14.16649 4.98844 17.67077 5.59579 19.65222 3.4061.91104-1.0068 4.23418-7.0445 7.38475-13.41712 3.15057-6.37261 6.96083-12.91579 8.46725-14.54039 1.50641-1.62461 2.36937-3.32341 1.91765-3.77512-.45171-.45171-4.8566-1.6391-9.78863-2.63866-4.93205-.99954-11.42176-2.53747-14.42157-3.41762-2.99983-.88015-6.6173-1.60028-8.03883-1.60028-3.28711 0-57.70197-13.74739-64.42713-16.27688-2.77485-1.04371-8.32456-2.56576-12.33268-3.38237-9.44955-1.92522-12.57787-2.84091-14.29471-4.18419-2.04211-1.59775-1.71942-3.44744.8852-5.07406 1.88114-1.17479 2.82555-1.13393 5.32548.23036 1.67136.91212 6.31821 2.14788 10.32633 2.74614 4.00813.59825 11.07139 2.39893 15.69615 4.00149 4.62476 1.60256 11.28216 3.37819 14.79421 3.94585 3.51206.56765 7.33211 1.53867 8.48899 2.15782 3.11437 1.66675 26.63209 7.64942 44.5466 11.33221 8.63288 1.77472 17.45863 3.76631 19.61279 4.42577 9.29788 2.8464 10.94434 1.70417 16.20611-11.24299 1.60449-3.94799 3.43462-8.09513 4.06698-9.21586.63234-1.12071 3.23431-6.1659 5.78215-11.21153 2.54784-5.04562 6.0519-11.2799 7.78682-13.85394 1.73492-2.57405 3.63692-5.94919 4.22666-7.50034 3.28705-8.64557 8.68225-18.66272 12.24838-22.74124 5.23745-5.98999 12.98942-18.19234 12.11367-19.06808-.37178-.37179-1.23388.52439-1.91576 1.99149-1.40406 3.02093-6.49305 7.16443-7.52805 6.12943-.37535-.37534.60654-2.06462 2.182-3.75393 5.58937-5.99334 5.69418-7.25004.97537-11.69394-2.33997-2.20364-4.6146-5.4535-5.05475-7.22189-.44015-1.76839-2.16907-5.48559-3.84204-8.26045-3.35279-5.56104-8.76731-20.99386-9.29292-26.48723-.18436-1.92697.30169-4.271 1.08012-5.20896 1.19179-1.43602.8334-2.05776-2.26899-3.93637-4.92768-2.98389-6.09094-3.27076-21.2117-5.23104-15.95435-2.06835-22.69244-4.60372-45.8178-17.24001-13.54076-7.39901-23.78532-15.76049-26.85746-21.92068-1.26799-2.54254-2.77776-5.37959-3.35506-6.30454-1.85976-2.97974-7.90671-19.27119-7.90671-21.30197 0-1.08157-1.49748-6.83129-3.32774-12.77718-1.83026-5.9459-3.63989-13.4496-4.02141-16.67491-.97416-8.23554-2.47744-12.60248-6.81371-19.79337-2.0734-3.43838-3.77113-7.20509-3.77271-8.37046-.002-1.88952-.63998-2.04975-5.88894-1.48028-3.23733.35124-9.92221 1.98386-14.85529 3.62808-13.09287 4.3639-20.26028 6.13127-29.71057 7.32617-4.62475.58476-11.94028 2.34348-16.25672 3.90828-4.31645 1.56479-12.64101 4.05791-18.499045 5.54026-5.858026 1.48234-13.678073 3.71911-17.37788 4.9706-6.946566 2.34972-16.790457 3.02364-19.459876 1.33221-.930812-.58978-1.238253-1.85619-.791974-3.26229.603026-1.89996 2.032529-2.43359 8.24834-3.07902 4.135392-.42942 8.158769-1.29343 8.940835-1.92002.782066-.6266 3.304662-1.54859 5.605768-2.04886 2.301106-.50025 7.967723-1.72384 12.592477-2.71906 4.62476-.99522 11.688035-3.35274 15.696165-5.23894 5.53235-2.60349 10.30465-3.78566 19.81497-4.90848 13.62298-1.60838 17.7659-2.52051 30.89172-6.8013 4.76489-1.55399 9.81008-2.73199 11.21154-2.61777 7.71988.62921 8.71444.17272 8.71444-3.99974 0-2.52769.62316-4.19836 1.7235-4.62059 1.92595-.73906 6.12458 2.52965 6.12458 4.76812 0 .93028 1.90056 1.56848 5.32548 1.78825 4.4599.28617 5.32548.70535 5.32548 2.57901 0 1.72699-1.0868 2.46655-4.76491 3.24247-2.62069.55284-4.7649 1.6453-4.7649 2.42767 0 .78239 2.32211 6.22564 5.16025 12.09611 3.44544 7.12664 5.33256 12.64049 5.6788 16.59246.28521 3.25538 1.5159 8.71374 2.73487 12.1297 1.21898 3.41595 2.89756 9.4902 3.73018 13.49832 1.55767 7.49844 3.96476 14.32369 8.50112 24.1048 3.50167 7.55015 4.45482 8.69244 6.10817 7.32027.93787-.77836 4.79598.57434 12.75142 4.47079 6.27367 3.07275 11.72077 5.58682 12.10464 5.58682.38387 0 3.53401 1.9077 7.0003 4.23934 7.2727 4.89206 12.96914 7.41249 20.87735 9.23736 6.56653 1.51526 19.15719 7.9638 18.84161 9.65008-.1199.64068.38462 1.21717 1.12116 1.28106 2.12813.18462 13.29634 4.33994 17.59588 6.54685 2.9498 1.51409 9.07358 2.37115 24.66538 3.45203 29.1946 2.02388 38.48945 1.97036 48.2096-.27765 5.97666-1.38222 14.73183-2.06018 30.27115-2.34405 22.60048-.41286 25.08374-.55165 50.45191-2.81979 18.5944-1.66251 37.44532-1.59768 51.70794.17785l10.78584 1.34269 9.16894-4.03134c13.77291-6.0556 25.56369-5.21529 36.15959 2.57702 4.40729 3.24116 5.39809 3.48542 14.32402 3.53124 9.82183.0505 14.9035.55301 39.29979 3.88674 18.64628 2.548 19.05962 2.63688 19.05962 4.09887 0 1.5025-12.60414.7076-29.61289-1.86757-6.11262-.92546-14.68944-1.65135-19.05961-1.61311l-7.94576.0695 5.04519 2.32294c14.86785 6.84556 13.61142 6.56541 29.5181 6.58165 8.32695.009 16.31822-.28026 17.75836-.64171 2.49696-.6267 18.9529.53829 38.66565 2.73731 5.02871.56097 14.11005 2.67383 20.18076 4.69523 9.83838 3.27597 12.4386 3.6813 23.93095 3.73048 7.0913.0304 19.19975-.58374 26.90769-1.36464 13.26282-1.34368 14.18235-1.59873 17.14575-4.75563 5.1498-5.48607 4.51903-5.43164 47.32058-4.08272 13.56596.42754 26.24746 1.29097 28.18113 1.91872 8.67105 2.81501 26.03267-.48438 50.29962-9.55892 6.16635-2.30589 15.57183-5.10338 20.90107-6.21665 5.32924-1.11328 10.71966-2.57545 11.97869-3.24927 5.68966-3.04501 12.53935-.24759 9.21164 3.76206-1.46122 1.76066-14.73828 5.20529-22.16956 5.75173-2.60895.19184-7.14962 1.42418-10.09039 2.73854-2.94076 1.31437-7.61717 3.14015-10.39202 4.0573-2.77486.91715-7.06327 2.60044-9.52981 3.74063-8.70325 4.02322-17.28059 5.7654-29.09511 5.90965-7.32116.0893-12.22834-.33587-13.20217-1.14407-1.08762-.90266-6.71521-1.11464-18.86671-.7107-13.64592.45362-20.16873 1.24975-30.77061 3.75568-9.44961 2.23358-18.12544 3.41622-29.14999 3.97358-8.63288.43645-18.47101 1.51741-21.8625 2.40213-9.11928 2.3789-21.5678.92093-39.80095-4.66149-13.95096-4.27135-39.5337-7.42884-58.29999-7.19555-6.78298.0843-17.37788.0642-23.54422-.0446-11.24333-.19847-13.78269-.88645-29.15-7.89752-1.23327-.56265-5.74777-2.31384-10.03224-3.89151-7.0016-2.57821-8.38406-2.74515-13.66102-1.64966-4.14991.86152-9.0972.87958-16.87546.0617-6.05239-.63647-16.04954-1.43526-22.21588-1.77508-6.16635-.33982-13.98639-1.17698-17.37788-1.86033-7.1452-1.4397-42.23838-.43485-50.36895 1.44225-2.82049.65117-16.22758 1.18657-29.79354 1.18978-18.90148.004-27.88614.51402-38.44796 2.18042-7.58043 1.19601-16.15725 2.28253-19.05962 2.41449-8.49581.38628-38.00548-1.48286-49.56259-3.13927-5.85802-.83961-10.99192-1.17953-11.40867-.7554-.41673.42412.13042 2.58151 1.21591 4.7942 1.08547 2.21267 3.11027 7.76238 4.49953 12.33269 1.38927 4.57029 3.33226 9.82319 4.31777 11.67309.98549 1.8499 3.38044 6.39058 5.32211 10.09038 1.94167 3.69981 4.2383 6.72692 5.10361 6.72692 1.82825 0 16.98627-18.45108 19.57241-23.82451.96453-2.00406 2.38589-3.64375 3.15858-3.64375 2.23075 0 3.98279 2.34874 3.23813 4.34095-1.10055 2.94432-10.35924 17.12615-14.44225 22.12163-2.0679 2.53008-3.75982 5.3618-3.75982 6.29275 0 1.35401 12.54108 8.72739 14.84403 8.72739.30495 0 2.16929-4.41454 4.14298-9.8101 5.46416-14.93757 7.01038-18.21874 8.58536-18.21874 2.24948 0 3.07696 2.21603 1.81916 4.8718-1.26831 2.67798-4.55287 11.5392-7.70783 20.79451l-2.06101 6.04612 3.77102 2.92311c2.07405 1.60771 7.05677 5.74572 11.0727 9.19559 7.68381 6.60071 16.99977 11.77654 32.8028 18.22478 13.12361 5.35493 31.17607 11.94023 32.7321 11.94023 2.12847 0 15.90594 5.73194 17.8081 7.40883.97351.85822 2.34509 1.5604 3.04799 1.5604 1.99721 0 .27069-3.19855-2.13942-3.9635-1.1877-.37695-3.72761-2.11767-5.64426-3.86826-3.20579-2.92803-3.42511-3.58086-2.73937-8.15373.93773-6.25324-.66835-7.98591-5.98823-6.4602-2.5425.72919-6.57903.54554-13.13377-.59751-5.80742-1.01272-10.20275-1.26871-11.37766-.66262-1.05299.54317-3.72468 1.31379-5.9371 1.71246-3.29755.5942-4.54726.2386-6.93357-1.97295-3.43244-3.18108-5.10008-10.01095-3.04806-12.48347 2.52852-3.04669 9.04572-2.02438 14.44228 2.26548 5.38878 4.28366 5.55445 4.34346 7.90769 2.8546 1.29871-.82168.68903-1.92657-3.08317-5.58736-2.98392-2.89579-4.70201-5.56015-4.70201-7.29171 0-2.63013-3.30258-4.86371-5.33458-3.60786-.94329.58297-18.64868-1.18044-21.85339-2.17654-1.07912-.33542-1.96202-1.38992-1.96202-2.34333 0-1.41867.91454-1.59633 5.03594-.97829 12.03706 1.80506 21.47334 2.479 23.55347 1.68218 1.23327-.47244 4.74594-3.42716 7.80593-6.56605 4.69099-4.81196 6.20814-5.7071 9.67281-5.7071 5.82834 0 7.63169 2.47951 5.01952 6.90156-2.20661 3.73549-1.22604 5.93606 2.32832 5.2252 2.0639-.41279 2.51343-2.99576 1.42757-8.20272-.36277-1.73957.16082-2.28038 2.33527-2.41212 1.54159-.0934 3.43353-.21952 4.20433-.28029 2.28846-.1804 1.63258-5.51365-.84087-6.8374-3.04025-1.6271-2.82892-3.36346.40938-3.36346 3.09809 0 8.55985 3.9528 8.55985 6.19497 0 3.00826-2.52319 7.02693-5.16882 8.23236-1.71716.78239-2.67925 2.16569-2.67925 3.85224 0 3.28924-4.35279 7.50696-7.74736 7.50696-1.4067 0-3.95552-.82575-5.66404-1.83499-2.75001-1.62447-3.67024-1.65664-8.02106-.28029-4.04878 1.2808-4.97679 2.09413-5.26735 4.61644-.43096 3.74125 4.07392 8.71813 7.86953 8.69407 1.41545-.009 4.69942-.75696 7.29771-1.66218 5.20768-1.81432 8.46095-1.22042 7.94385 1.45017-.20759 1.07217-3.46262 2.68663-8.54546 4.23846-9.25407 2.82534-10.36284 3.51751-8.01412 5.00288 3.03936 1.92215 10.69595 1.21951 13.86371-1.27225 3.63197-2.8569 5.12868-2.37972 9.17493 2.9252 2.78206 3.64747 3.00835 4.55434 2.04838 8.20907-.59356 2.25974-.90613 4.96782-.69459 6.01795.54386 2.69997 4.49632 3.68112 6.76745 1.67995 2.84763-2.50914 8.68919-3.36102 13.08934-1.90884 7.67736 2.53375 3.5377 8.97051-5.76919 8.97051-3.94627 0-3.18468 1.91661 1.765 4.44174 4.08478 2.0839 4.73857 2.12576 9.11018.58337 6.3822-2.25177 11.52543-2.10675 13.78373.38865 4.12611 4.55929.83468 7.38488-8.30883 7.13288-5.8756-.16193-6.65297.068-6.65297 1.9681 0 2.79098 2.25486 3.42813 14.13912 3.99528 12.24279.58426 14.51113 2.12647 10.70318 7.27698-2.65803 3.59518-2.62906 3.63672 3.46682 4.97244 3.67534.80534 3.91328 2.96433.79199 7.18612-3.15134 4.26241-1.94413 6.56667 3.77024 7.19643 4.05276.44665 5.79442-.16051 12.86573-4.4851 6.49863-3.97437 9.49227-5.10546 14.57499-5.5069 7.79644-.61576 12.00233 1.21899 12.00233 5.23582 0 3.83297-5.44683 6.18073-18.96532 8.17469-8.70807 1.28443-11.81058 2.26964-15.57465 4.94582-6.34361 4.51017-13.41308 5.6108-16.46109 2.56278-4.5572-4.55719-1.23833-7.69765 4.14794-3.92496 1.95589 1.36994 2.96974 1.43992 5.32369.36739 3.96995-1.80884 3.1158-3.26535-2.95258-5.0348-7.40235-2.15842-8.46-3.87818-5.48554-8.91954 1.32531-2.24622 2.12542-4.36825 1.77804-4.71563-.34738-.34738-3.0166.22322-5.93161 1.268-6.63141 2.37678-6.98175 2.36489-6.98175-.23712 0-1.16911 2.39647-4.15108 5.32548-6.62662 2.92902-2.47554 5.00632-4.82324 4.61625-5.2171-.70601-.71285-9.36918-1.59748-16.4746-1.68228-4.52662-.054-10.28443-5.25994-10.28443-9.29864 0-1.70264-.99432-3.23181-2.69233-4.14055-5.30904-2.84132-5.18511-.57451.45692 8.35745 3.11329 4.92869 6.26461 10.97933 7.00292 13.44587 1.34012 4.47699 1.56537 44.71303.27312 48.78456-.48968 1.54284 1.2855 2.60604 9.22893 5.52745 13.3841 4.92236 24.60328 7.85397 30.17806 7.88562 2.72598.0155 9.21393 1.84389 15.69615 4.42341 15.77355 6.27692 35.29968 11.75716 46.37073 13.01452 8.13489.92389 11.7392 2.22456 12.15575 4.38661.32889 1.70696-.18766 1.92395-3.36346 1.41291-2.06361-.33208-7.03138-1.13498-11.03951-1.78422-4.00812-.64925-10.31461-1.96074-14.01442-2.91445-3.6998-.95369-10.18729-2.48663-14.41663-3.4065-4.22934-.91987-11.72613-3.44721-16.65955-5.61631-5.52759-2.43034-11.61187-4.19354-15.85451-4.59458-7.27345-.68753-23.42814-4.36953-26.58588-6.0595-1.02895-.55068-3.9353-1.46509-6.45852-2.03203l-4.58769-1.03079-1.81853 6.25551c-1.99512 6.86299-1.48781 14.12707 1.37298 19.65922.99264 1.91955 1.51431 5.31823 1.29293 8.42342l-.37112 5.20551 7.84808 2.10497c8.51136 2.28286 9.44898 2.3444 18.17188 1.19264 5.99523-.7916 13.59283.70035 34.52234 6.77923 10.41068 3.02373 30.36141 6.68929 44.89924 8.24935 7.57555.81294 12.2588 2.06065 18.49904 4.92855 20.22508 9.29503 46.14401 17.79561 74.92241 24.57212 11.43595 2.69285 17.51966 5.95584 17.51966 9.39663 0 3.13995-3.60466 3.29639-11.35063.49259-3.62329-1.31152-11.63302-3.5608-17.79936-4.99841-6.16635-1.4376-14.22612-3.74942-17.91061-5.13739-3.68449-1.38796-8.22517-2.90122-10.09038-3.3628-6.25936-1.54898-25.70426-8.94738-38.14708-14.51421-10.94025-4.8946-13.72513-5.65856-24.66538-6.76625-12.99171-1.3154-32.75741-5.69889-40.43475-8.96732-4.62707-1.96985-21.71153-6.6822-24.2261-6.6822-3.27071 0 1.40664 2.20083 10.5111 4.94577 9.18994 2.77072 12.09144 4.41224 10.54043 5.96325-.94688.94688-15.75632-1.29732-23.09932-3.50045-12.37143-3.71179-27.54415-7.38238-30.56924-7.3953-2.79773-.012-3.0799.34307-2.88532 3.63048.31463 5.31558 3.719 11.49165 8.23174 14.93368 4.22359 3.2215 8.23327 9.77771 17.43687 28.51103 8.03039 16.34529 11.73783 20.55989 22.80643 25.92617 7.14197 3.46257 10.00724 5.60469 13.40075 10.01865 6.5092 8.46655 20.14956 17.1466 29.83025 18.9825 3.66202.6945 8.91662 3.24929 15.41517 7.4949 10.11622 6.60911 17.43897 10.45276 19.91412 10.45276 2.53025 0 13.3736 6.07416 19.38398 10.8584 3.24201 2.58063 6.89977 5.01109 8.12837 5.40103 1.22858.38994 2.23378 1.1795 2.23378 1.75458s.0375 1.39901.0832 1.83096c.0457.43195-.94281 1.16489-2.19676 1.62875-1.67353.61908-3.70846-.17653-7.65095-2.99132zm-90.73383-51.55643c-.68234-1.77813-2.64775-2.33294-2.64775-.74744 0 1.18564 1.22552 2.42917 2.39398 2.42917.4945 0 .6087-.75678.25377-1.68173zm-6.01121-6.02907c0-1.43368-3.29662-3.94131-4.1109-3.12702-.81429.81428 1.69334 4.1109 3.12702 4.1109.54113 0 .98388-.44275.98388-.98388zm-52.88251-93.03126c.20477-1.44001-.67814-5.06001-1.96202-8.04445-2.76956-6.43804-2.9659-12.6017-.6214-19.50728.9421-2.77489 1.39319-6.3191 1.00244-7.87601-.84124-3.35173-1.5813-3.56818-26.82015-7.84405-9.86615-1.6715-20.96557-4.02702-24.66538-5.23449-11.53583-3.76487-14.31998-4.24575-27.52335-4.75387-12.30729-.47363-24.79899-2.69339-41.98817-7.46126-8.48758-2.35425-21.51023-4.41897-26.90769-4.26618-1.8499.0524-4.50117-.28321-5.89172-.74575-2.3269-.77399-2.96366.0847-7.99508 10.78309-10.50076 22.32768-11.17746 23.96299-10.29157 24.87049 2.97276 3.04523 33.01317 8.42616 50.81038 9.1013 17.14056.65023 21.65693 1.32433 34.47086 5.14503 24.53062 7.31424 49.02256 12.74412 65.02691 14.41653 5.85803.61215 12.66904 1.87212 15.13558 2.79993 5.79136 2.17849 7.76106 1.8471 8.22036-1.38303zM293.38819 535.0882c4.76644-9.79596 13.24578-27.38478 13.59309-28.19639.99863-2.33361-7.48912-4.60193-27.25948-7.28497-5.72546-.77701-7.61691 1.23175-13.35135 14.17944-2.32138 5.24139-5.4383 11.41093-6.9265 13.7101-1.48819 2.29916-2.7058 4.42884-2.7058 4.73263 0 1.51136 27.32712 8.41364 31.95287 8.07065 1.46687-.10875 3.09127-1.91103 4.69717-5.21146zm175.46725-7.00721c.25254-.77079.42553-11.54899.38441-23.95155-.0852-25.70144-.24219-26.22007-7.93736-26.22007-4.05251 0-5.40413.62265-8.51808 3.92403-3.97922 4.21875-6.60861 4.89918-8.78734 2.27397-1.1035-1.32964-.87597-2.44853 1.17167-5.76167l2.54111-4.1116-3.56137-2.92726c-5.30848-4.36333-4.72518-6.19724 1.69138-5.31775 4.03427.55296 5.70312.29131 7.2875-1.14253 5.46944-4.94977-.0545-9.42536-20.55801-16.65658-33.57196-11.8402-43.39145-15.70214-51.94373-20.4291-11.83489-6.5413-14.10621-8.09793-19.92301-13.65415-4.39925-4.20216-5.69209-4.89398-7.2875-3.89971-3.1061 1.93574-6.71837 9.28362-8.74142 17.78128-1.03152 4.3328-4.30031 13.67977-7.26398 20.77107-2.96366 7.0913-5.73392 14.28546-6.15615 15.98704-.42223 1.70157-1.2026 3.36256-1.73416 3.69108-.53157.32853-1.49301 2.72022-2.13655 5.31488-.64353 2.59467-3.53642 9.63321-6.42863 15.64122-3.34138 6.94102-4.8675 11.31227-4.1859 11.98958 1.03779 1.03124 9.86781 2.67636 21.08754 3.92884 2.99193.33399 8.03712 1.39567 11.21154 2.35926 11.23473 3.41034 33.56821 7.23617 42.24153 7.23617 9.20906 0 21.34065 2.10076 27.99649 4.848 2.15822.89081 10.23053 2.68358 17.93846 3.98393 7.70793 1.30035 17.29379 3.08438 21.30192 3.96453 9.30193 2.04262 9.75849 2.05933 10.30964.37709zm-123.10807-26.09642c-1.47379-2.24928-1.66017-3.92288-.90519-8.12836.52289-2.91274 1.013-11.35011 1.08914-18.74973.0761-7.39961.72029-16.73322 1.43146-20.74134.71117-4.00812 1.29683-7.66589 1.3015-8.12836.0177-1.75471-3.39612-.74461-4.73634 1.40144-1.44909 2.32036-4.22443 3.07358-4.22443 1.14651 0-.60269 2.46027-6.02627 5.46727-12.0524s6.13546-12.84855 6.95215-15.16093c.81669-2.31238 2.01418-4.20421 2.6611-4.20406 1.91889.00044 15.19063 29.39707 15.19063 33.64693 0 1.49872-.86692 2.66635-2.24778 3.02745-1.85662.48552-2.19805 1.39401-1.96202 5.22052.24554 3.98052-.0299 4.63271-1.95654 4.63271-1.55502 0-2.34501-.85912-2.57736-2.80289-.18427-1.54158-1.04903-5.07322-1.92169-7.84807-.87265-2.77486-1.86666-6.43262-2.2089-8.12837-.85844-4.25334-2.80314-3.8784-2.90764.56058-.0472 2.00406-.30468 4.65279-.57222 5.88606-.26756 1.23326-.65804 13.14173-.86777 26.46326-.20972 13.32151-.73877 24.79932-1.17567 25.50624-1.31693 2.13084-3.86241 1.45528-5.8297-1.54719zm37.38631-1.35849c-2.9568-3.26722-2.3866-9.40905 2.12148-22.85123l4.06897-12.13283 15.1513.24761c14.73661.24085 15.20736.32434 17.19906 3.05051 1.17718 1.6113 2.11275 4.94773 2.20066 7.84807.0841 2.77486 1.18245 7.73198 2.44076 11.01584l2.28784 5.97066-2.29338 2.29338c-2.62718 2.62718-16.25273 5.27723-31.68487 6.16245-8.40152.48192-9.77755.28981-11.49182-1.60446zm22.73859-4.78218c3.24013-.61448 7.85617-1.11723 10.2579-1.11723 5.39297 0 6.28358-1.80755 3.86675-7.84782-.98586-2.46389-2.11472-7.22167-2.50859-10.57286l-.71612-6.09305-10.22521-.36498c-11.08004-.39549-13.02811.42985-13.02811 5.51956 0 1.44944-1.4814 5.80388-3.29201 9.67652-1.81061 3.87264-3.63892 8.42335-4.06292 10.11268l-.77089 3.07151 7.29405-.63355c4.01172-.34845 9.94504-1.13631 13.18515-1.75078zm-94.11257.28421c.63287-1.69574 2.61205-6.11029 4.39819-9.81009 1.78613-3.69981 5.54649-12.95868 8.35635-20.57526 2.80987-7.61659 6.02607-15.18437 7.14714-16.8173 2.8714-4.18246 6.40458-13.10019 8.06136-20.34685 2.08069-9.10079 4.42518-15.20602 7.37435-19.20339 1.44227-1.95489 2.36463-3.97127 2.04969-4.48086-.31495-.50959-3.84302-2.75544-7.84018-4.99078-9.03241-5.0512-8.71289-5.22895-15.77277 8.77455-1.01035 2.00406-3.24571 5.15731-4.96747 7.00721-3.13785 3.3714-8.89169 13.81516-8.89169 16.13926 0 .68124-.44145 1.23862-.98101 1.23862-.53955 0-1.2585 1.38743-1.59766 3.08317-.33916 1.69575-1.81356 4.84899-3.27644 7.00721-4.19058 6.18245-14.54133 26.52094-17.68804 34.75577-.82471 2.15822-2.97677 6.16558-4.78237 8.90525-3.08233 4.67689-3.16165 5.06988-1.29833 6.43237 1.09153.79814 3.53662 1.72456 5.43354 2.05872 1.89694.33416 6.98061 1.29073 11.29705 2.12571 11.33175 2.19205 11.68709 2.15637 12.97829-1.30331zm225.84108-2.1224c3.28331-1.25992 1.58136-2.6425-3.25291-2.6425-3.37269 0-5.75375.72903-7.56779 2.31709l-2.6468 2.31709 5.89972-.67579c3.24484-.37169 6.65034-.96383 7.56778-1.31589zm-49.05851-34.87567c.28748-.87293-.60578-1.40144-2.36861-1.40144-2.93577 0-4.58707 1.36516-3.25842 2.6938 1.17987 1.17986 5.11013.2772 5.62703-1.29236zm-19.90609-12.61298c0-.61663-.75678-1.12115-1.68173-1.12115-.92495 0-1.68173.50452-1.68173 1.12115 0 .61664.75678 1.12116 1.68173 1.12116.92495 0 1.68173-.50452 1.68173-1.12116zm-54.30995-20.72732c2.12948-1.63182 2.11599-1.71634-.62658-3.92782-3.36398-2.71257-8.22994-2.53289-8.77194.32391-.88308 4.65471 5.05559 6.93192 9.39852 3.60391zm15.10443-26.9217c-.0521-1.67701-4.81591-1.35299-5.38909.36655-.34643 1.03929.39625 1.37722 2.46402 1.12115 1.62796-.20161 2.94424-.87107 2.92507-1.4877zm5.57091-5.0452c0-.61663-.50452-1.12115-1.12115-1.12115-.61664 0-1.12116.50452-1.12116 1.12115 0 .61664.50452 1.12116 1.12116 1.12116.61663 0 1.12115-.50452 1.12115-1.12116zm350.87124-39.12711c5.82944-1.6083 6.702-2.11978 4.48461-2.62884-7.12927-1.6367-20.13092 1.58851-20.13092 4.99371 0 1.27634 5.41474.45792 15.64631-2.36487zM562.5328 334.8162c3.56977-.95665 3.13063-2.28224-1.23318-3.72243-5.94457-1.96188-15.3451-1.73523-20.34903.49062-4.37003 1.94389-4.41301 2.01683-1.68173 2.8549 3.41361 1.04745 19.77283 1.31249 23.26394.37691zm-278.33629-10.5209c-1.06887-1.72947-8.47321-5.22188-12.88337-6.07671-7.6177-1.47655-17.44256-5.53673-22.88506-9.45738-4.40283-3.17169-13.92012-8.30358-28.96829-15.62021-.46248-.22486-.84087.11841-.84087.76283 0 1.79408 16.65324 13.91593 24.75237 18.01718 3.96029 2.00541 7.70503 4.0089 8.32167 4.45221 3.54012 2.54499 16.51533 7.2793 21.83015 7.96524 9.44224 1.21863 11.44821 1.21051 10.6734-.0432zm406.20805 259.07007c-1.5206-1.19611-7.01222-4.29329-12.2036-6.88263-5.19137-2.58934-12.35021-6.18497-15.90853-7.99027-9.96727-5.05688-20.60996-8.30783-34.42952-10.51698-11.36827-1.8173-14.6593-1.88378-33.15341-.66959-15.69942 1.0307-21.20997 1.03921-23.41146.0361-3.06331-1.39573-3.73587-4.13138-1.55249-6.31476 2.43206-2.43206.0654-2.66902-4.31873-.43241-3.88806 1.98353-4.64369 2.04514-7.39615.60298-1.75753-.92083-3.06566-2.54774-3.06566-3.81273 0-1.21357-.70089-2.2065-1.55753-2.2065-.85663 0-2.74858-.97617-4.20433-2.16928-2.31785-1.8997-2.4679-2.46271-1.20737-4.53023 1.8052-2.96086.90216-4.51202-2.62675-4.51202-3.66674 0-7.22518-3.66713-6.44679-6.64372.54855-2.09764.11605-2.32551-4.41364-2.32551-3.89181 0-5.97415-.75684-9.25416-3.36346-2.32781-1.84991-5.09384-3.36346-6.14675-3.36346-2.93728 0-5.95068-3.93571-5.08991-6.64777 1.0651-3.35583 4.63652-4.8626 11.38188-4.80199 11.47136.10303 17.18414 8.71264 7.11713 10.72604-1.9524.39048-3.33831 1.37747-3.33831 2.37742 0 1.38673 1.65926 1.70976 8.78236 1.70976 4.83031 0 9.09166.30929 9.46968.6873.37802.37802-.40869 2.16972-1.74825 3.98157-2.08209 2.81618-2.1954 3.44622-.78072 4.34137.91014.57591 4.05127.73728 6.98029.35861 4.55707-.58916 5.32548-.41008 5.32548 1.24112 0 1.06129-1.02403 3.23145-2.27562 4.82258-2.87966 3.66092-1.39955 4.72628 4.8776 3.51083 2.57703-.499 6.87338-.92925 9.54742-.9561 5.44032-.0546 10.28746-3.02462 20.34153-12.46389 6.4286-6.03548 10.12704-7.13532 10.09078-3.0008-.015 1.71263-4.15487 6.62127-12.89326 15.2876-7.07914 7.02076-12.87115 13.45338-12.87115 14.29471 0 1.92492 1.35759 1.88764 15.13557-.41566 24.40895-4.08053 57.966.53969 76.23845 10.49671 2.46654 1.34406 9.56054 4.99604 15.76444 8.1155 11.96852 6.01803 15.75234 9.0808 14.67787 11.88081-.87322 2.27558-2.09914 2.17383-5.43639-.45125zm-125.0132-36.68579c2.08126-1.08032 2.97933-2.06794 2.13852-2.35177-2.4761-.83583-6.9591.80935-6.9591 2.55386 0 2.09656.42663 2.07868 4.82058-.20209zm-34.42157-32.93496c4.55458-1.73166 1.62129-3.89346-5.20292-3.8345-5.65799.0489-8.64817 1.59664-7.29973 3.77848.95597 1.54677 8.49282 1.58055 12.50265.0561zm22.15835-26.30545c-.35494-.92495-1.22949-1.68173-1.94344-1.68173-2.24763 0-10.09317-4.57499-13.65095-7.96031-1.87926-1.78818-4.59885-3.25123-6.04354-3.25123-3.24229 0-11.69469-4.13244-15.315-7.48762-1.70813-1.58305-2.69288-3.74525-2.69288-5.91268 0-2.68757-.48636-3.417-2.27832-3.417-4.91992 0-9.77939-3.05717-11.06856-6.96339-1.2121-3.67269-1.474-3.81693-6.93056-3.81693-6.75667 0-7.89653-1.30178-6.98201-7.97388.3611-2.63452.39914-4.79003.0845-4.79003-.31461 0-2.69871.75035-5.29801 1.66743-3.39764 1.19876-5.32802 1.34524-6.86787.52113-3.01301-1.61251-2.67092-3.58885 1.22157-7.05708 1.84991-1.64826 3.36346-3.49748 3.36346-4.10935 0-1.66358-4.78067-1.34284-9.52376.63895-2.30551.9633-4.88972 1.48365-5.74268 1.15634-2.56265-.98337-1.75403-4.83505 1.53231-7.29884 1.69575-1.27131 3.75737-2.88206 4.58139-3.57943.82402-.69738 4.07866-2.64675 7.23254-4.33195 8.71123-4.65461 8.367-6.1404-1.21627-5.24972-7.94354.73827-15.05939-.65008-13.02253-2.54079.56288-.5225 7.89819-1.26127 16.30066-1.6417 18.64491-.84416 20.64013.1268 12.57922 6.12155-2.84064 2.11253-7.31203 5.10227-9.93644 6.64385-5.91048 3.47186-5.8773 5.15781.0922 4.6814 6.26347-.49986 8.58678 2.12126 5.13604 5.7944-3.49327 3.71841-3.07069 5.1871 1.2889 4.47964 5.07891-.82419 7.09507 1.60297 5.39132 6.49036-1.66469 4.77532-1.5742 5.46016.72302 5.47199 1.07911.006 3.29656-1.61366 4.92767-3.59827 2.5094-3.05325 3.23277-3.38668 4.70199-2.16734 1.30794 1.08549 1.58121 2.7511 1.10754 6.75051-1.1821 9.98103 6.22492 12.36583 14.84382 4.77918 4.93618-4.34502 15.40311-9.13764 19.95628-9.13764 3.04336 0 7.43719 2.96668 7.43719 5.02153 0 2.73942-10.34453 10.53985-15.67861 11.82265-2.7845.66965-6.57324 1.58826-8.41942 2.04136-6.56787 1.61189-4.0995 8.85126 3.82781 11.22635 5.14259 1.54075 6.81638 1.03553 6.81638-2.05752 0-3.58996 1.28334-5.65759 4.5648-7.3545 3.95768-2.04659 10.05213-2.11602 12.74736-.14522 1.80201 1.31765 1.88431 1.98065.6937 5.58823-1.37072 4.15334-5.83771 8.61288-8.62725 8.61288-2.82418 0-1.56625 3.37416 2.11322 5.66827 2.6479 1.65096 5.32902 2.22269 9.81009 2.09196 3.39149-.099 6.79699-.11966 7.56779-.0461 2.37406.22679 1.55425 3.21439-1.55264 5.65828-3.47015 2.72961-6.94199 3.01346-7.85202.64195zm-7.64868-20.38518c1.76742-1.76742 1.75897-1.97913-.13421-3.36346-1.11119-.81253-2.3924-1.47732-2.84713-1.47732-1.73075 0-4.22762 3.50009-3.62225 5.07764.84888 2.21215 4.27755 2.08917 6.60359-.23686zm-11.81637-16.98865c6.84829-3.37237 8.36124-6.59714 2.80288-5.97422-4.62229.51803-12.22684 4.83864-12.68271 7.20585-.53284 2.76679 2.53737 2.38405 9.87983-1.23163zm-110.25986-68.38318c-2.24292-2.47837-2.40627-4.67662-.34754-4.67662 2.11297 0 5.5919 4.0953 4.70204 5.53512-1.05767 1.71136-2.23972 1.47831-4.3545-.8585zm-18.30584-3.18994c-1.72719-.89608-6.60852-2.35878-10.84738-3.25046-4.23885-.89166-8.15551-1.8984-8.70368-2.23719-1.91442-1.18318-.97619-3.80816 1.52592-4.26921 1.38743-.25564 5.78124-1.06358 9.76404-1.79541 7.48699-1.37573 13.4999-3.84299 13.4999-5.5394 0-1.22294-2.81821-2.33347-5.9217-2.33347-1.8471 0-2.07586.29898-1.02945 1.34539 1.83108 1.83108 1.69091 3.13923-.33635 3.13923-4.63037 0-8.41153-9.2992-4.40612-10.83622 2.26239-.86817 17.30079 3.63019 19.50504 5.83444 1.26858 1.26859 1.38445 2.15605.47283 3.62137-1.46167 2.34944-11.40003 7.95349-14.26373 8.04305-3.28394.1027-1.48527 2.73899 2.41264 3.5362 3.93438.80466 7.1959 3.03937 6.37485 4.36786-1.09204 1.76695-5.01066 1.949-8.04681.37382zm276.55798-72.331c-2.77486-.56106-7.56779-1.72328-10.65096-2.58271-9.77101-2.72367-28.13293-3.29309-35.87692-1.11258-16.28902 4.58659-22.53585 4.68355-36.36667.56456-5.32267-1.58515-12.08722-2.37612-23.66259-2.76678-24.21527-.81727-32.27636-1.66513-40.27274-4.23587-7.41375-2.38342-12.05604-2.24883-33.78759.97961-2.36541.3514-6.29445-.16729-9.49301-1.25322-3.20615-1.08852-8.16924-1.74211-12.03183-1.58446-3.98515.16263-6.88534-.23449-7.36358-1.00831-1.22981-1.98987-7.95097-4.3994-14.72484-5.27884-3.39149-.44031-14.74317-2.95814-25.22595-5.59519-29.57866-7.44077-45.36766-8.74209-65.58749-5.40572-8.34479 1.37694-31.81989.22936-40.36153-1.97307-4.62476-1.19247-12.69706-2.64329-17.93846-3.22402-16.3509-1.81168-20.72638-3.07293-33.62688-9.69315-9.48841-4.86923-13.52635-7.64733-16.639-11.44763-2.26053-2.75994-5.78439-6.84145-7.83077-9.07001-5.3154-5.78856-6.11973-8.42917-5.94878-19.52995.0836-5.42973-.36057-10.83006-.98709-12.00071-.62652-1.17065-1.45496-5.30496-1.84099-9.18735-.38603-3.8824-1.64637-9.05461-2.80076-11.49381-1.79326-3.78914-1.87164-4.66215-.53829-5.9955 1.24696-1.24696 2.06328-1.29156 4.06193-.22193 2.96692 1.58785 8.06356 1.0149 25.22853-2.83616 30.5786-6.86047 50.84495-9.8904 73.99613-11.06283 5.54972-.28106 17.40591-1.34149 26.34711-2.35651 15.6913-1.7813 25.10339-1.76352 56.05769.10595 4.62475.2793 21.71883.50911 37.98683.51068 17.87997.002 36.06012.65652 45.9673 1.65559 21.60431 2.17866 40.98906 2.17525 52.82661-.009 17.95256-3.31301 28.77633-4.03059 41.3631-2.74223 6.54043.66946 17.4414 1.62093 24.22438 2.11435 6.78298.49342 17.51351 1.56335 23.84563 2.37762 15.49017 1.99193 33.8276.29367 43.49147-4.02781 6.98944-3.12554 7.22826-3.13168 22.91577-.58777 9.90812 1.60673 18.59197 1.3963 20.15614-.48842 2.25744-2.72004 8.19834-3.17268 15.29769-1.16555 12.16227 3.43854 25.43781 4.31543 33.87464 2.23756 10.72892-2.64238 45.40379-4.23916 96.60227-4.44854 38.87808-.15899 45.10695-.42516 51.01249-2.17981 3.6998-1.0993 10.51081-2.40743 15.13557-2.90698 25.35233-2.7384 48.43819-4.61178 49.90339-4.04956 2.29838.882 2.09508 4.46318-.3806 6.70368-1.3638 1.2342-4.0855 1.86709-8.1284 1.89012-3.34292.0191-9.68411.50323-14.09151 1.07598-4.4074.57276-13.23648 1.10363-19.62019 1.17975-7.44195.0887-15.02626.96643-21.13653 2.44606-7.66513 1.85614-13.47856 2.3315-29.71057 2.42939-11.09943.0669-22.95563.0192-26.34711-.10618-20.57677-.76053-76.99142 2.23647-88.40962 4.69672-10.41748 2.24463-32.5267 1.59269-36.33005-1.07129-3.16965-2.2201-9.02805-2.18671-13.80202.0787-3.83749 1.82101-9.21031 1.79182-31.31309-.17016-6.59089-.58505-8.74606-.30676-13.45384 1.73728-8.50747 3.69379-32.20036 5.14692-47.08351 2.88772-6.16906-.93684-18.02749-2.23832-26.35205-2.89258-8.32457-.65426-18.41495-1.58253-22.42308-2.06281-8.66316-1.03809-21.25937-.10584-35.87691 2.65518-12.57784 2.37577-41.47446 2.55707-54.88823.34438-10.64499-1.75597-101.25171-1.69181-134.58673.0953-42.88291 2.29897-54.63405 3.13965-56.04092 4.00914-.77219.47723-5.75864 1.02175-11.08104 1.21005-15.40058.54485-31.2503 2.38983-42.7511 4.9764-5.85803 1.3175-12.5429 2.67749-14.85528 3.0222-2.31238.34472-4.20433.871-4.20433 1.16953 0 .29852.72943 2.88081 1.62096 5.73843 2.80386 8.98717 5.28736 22.31093 5.08893 27.30165-.3445 8.66447-.0473 9.494 6.59398 18.40251 7.14366 9.58246 9.05589 11.49742 14.16439 14.18457 12.54011 6.5963 23.08466 9.92344 36.4375 11.49716 3.39149.39972 11.3855 1.99049 17.76447 3.53507 12.42546 3.00865 16.89991 3.04843 48.26219.42915 17.5081-1.46222 29.37411-.0248 58.98197 7.14525 15.10724 3.65844 25.90158 5.94958 31.81471 6.7528 2.69887.36661 5.96437 1.40715 7.25668 2.31231 1.2923.90516 4.26308 1.64575 6.60171 1.64575 2.33865 0 7.3092.84996 11.04566 1.88879 5.66964 1.5763 7.84629 1.67874 13.15663.61917 17.41615-3.47505 24.41488-3.92841 31.85175-2.06332 3.94241.98873 8.65267 1.79767 10.46725 1.79767 1.81457 0 5.06171.52893 7.21587 1.17538 2.15415.64646 11.08334 1.43006 19.84265 1.74132 14.80723.52618 19.63143 1.08946 32.84417 3.83485 12.5342 2.60442 14.85662 2.55619 23.95132-.49743 7.80958-2.62212 9.98495-2.88965 19.05962-2.34396 14.43638.8681 19.23656 1.53609 28.18231 3.92186 11.92362 3.17994 28.39189 3.93378 39.56683 1.81118 5.11263-.97111 10.30138-2.30388 11.53054-2.96171 3.09719-1.65755 23.39277-4.15119 40.83723-5.0175 8.01625-.39808 18.61115-1.36996 23.54422-2.15971 9.88847-1.58309 31.26977-.72359 36.79077 1.47893 6.76472 2.69868 26.0722 1.12597 38.8871-3.16757 4.15337-1.39157 14.43335-3.36093 20.18077-3.86608 2.77485-.24389 11.14488-2.26169 18.60005-4.484 14.26465-4.25214 17.80425-4.78717 18.98894-2.8703.9735 1.57517-1.52751 4.43551-3.87828 4.43551-1.04041 0-8.05855 2.03258-15.59589 4.51683-7.53732 2.48425-17.44101 4.9906-22.00819 5.56966-4.56718.57907-13.00123 2.40452-18.74232 4.05656-12.10109 3.48219-27.12626 4.65037-36.54086 2.84099-7.67741-1.4755-28.52555-1.58255-41.72728-.21424-5.24139.54325-14.32274 1.30954-20.18076 1.70288-5.85803.39333-13.99583.94247-18.08402 1.22031-4.08817.27784-9.89014 1.03897-12.89327 1.69139-14.15868 3.07597-17.76629 3.48273-33.48905 3.7759-9.24951.17247-19.08764-.14547-21.86249-.70654zM320.08333 176.38336l4.48461-.92761-5.04519.003c-2.77486.002-6.55875.38886-8.40865.85957l-3.36346.85586 3.92403.068c2.15822.0375 5.94212-.34939 8.40866-.85957zm21.55885-1.86284c-.37255-.37255-1.33955-.41237-2.14888-.0885-.89438.3579-.62872.62357.67737.67736 1.18187.0487 1.84406-.21631 1.47151-.58885zm7.59114-.44379 2.24231-.96355h-2.24231c-1.23327 0-3.25135.4336-4.48461.96355l-2.24231.96356h2.24231c1.23326 0 3.25134-.4336 4.48461-.96356zm16.53702-1.86367c-.7708-.31102-2.0321-.31102-2.80289 0-.77079.31102-.14014.5655 1.40144.5655 1.54159 0 2.17224-.25448 1.40145-.5655zm25.92667-.46969c5.734-.0909 5.73894-.0942 2.38349-1.57173-2.16311-.95253-4.03632-1.12001-5.25178-.46951-1.03914.55612-4.31897 1.01887-7.28853 1.02831-4.00586.0128-4.9652.30992-3.71745 1.15158.92495.62392 3.13222.86846 4.90504.5434 1.77283-.32504 5.80898-.63197 8.96923-.68205zm277.62567 112.20642c0-.61664.50452-1.12115 1.12115-1.12115.61664 0 1.12116.50451 1.12116 1.12115 0 .61663-.50452 1.12115-1.12116 1.12115-.61663 0-1.12115-.50452-1.12115-1.12115zM164.34913 150.32501c-.29351-1.42747-.82546-12.37025-1.18208-24.31732-.65803-22.04357-.27323-24.80594 3.4555-24.80594 1.05444 0 1.54446 1.42289 1.54446 4.48461 0 2.46654.50452 4.48462 1.12115 4.48462.61664 0 1.12116-2.5427 1.12116-5.65044 0-7.149133 3.18109-13.541833 8.31861-16.716987 3.56823-2.205288 4.17339-2.272325 7.04206-.780083 7.16069 3.724897 12.14456 12.233637 11.07681 18.91095-.86612 5.41648-3.00906 8.76911-9.56314 14.96163l-5.08386 4.80338 2.7937 8.08915c2.35791 6.82734 3.40308 8.41442 6.70025 10.17424 7.94953 4.24297 19.94091 1.80351 26.65975-5.42353 3.4794-3.74256 7.09848-11.09102 6.38193-12.95834-.3244-.84537.37705-2.41203 1.55878-3.48148 1.97996-1.79185 2.29103-1.80201 3.96358-.12947.99824.99824 1.81498 2.34651 1.81498 2.99615 0 .64964 1.32384 4.13109 2.94188 7.73656 4.07037 9.06999 6.02146 9.41133 12.85324 2.24861 3.00103-3.1464 6.27499-5.72073 7.27545-5.72073 2.33574 0 9.44288 7.07211 9.44288 9.39633 0 2.27137 5.05357 3.55713 8.84639 2.25075 3.6568-1.25952 7.16881-8.15516 7.30757-14.34797.12599-5.623 1.92353-6.14299 12.26764-3.54879 8.15921 2.04625 21.24889 2.31166 26.34763.53423 3.07962-1.07356 3.53531-1.75402 3.56641-5.32548.0196-2.25205.65198-4.90383 1.40525-5.89282 1.74231-2.28755 10.15551-6.61048 12.8652-6.61048 5.58602 0 6.40836 6.96427 1.39005 11.77212-1.8499 1.77232-3.36346 3.91052-3.36346 4.75158 0 3.77163 14.9631 6.28022 21.84751 3.66276 3.93457-1.49592 9.75104-7.97136 9.17736-10.21712-.56593-2.21546 1.14599-5.48472 2.87205-5.48472 2.56557 0 11.62703 4.96868 15.77274 8.64869 2.34461 2.08123 5.4656 4.24132 6.93554 4.80019 5.02706 1.91128 26.90991 3.65065 37.75838 3.00124 8.1743-.48932 11.13517-.29023 12.04844.81018.89821 1.08229.66214 1.95549-.9144 3.38223-1.82864 1.6549-4.83993 1.93338-21.57825 1.99553-22.60813.084-30.69245-1.71011-38.73777-8.5966-5.70469-4.883-9.00524-5.00402-13.29925-.4876-1.81112 1.90492-5.53759 4.78659-8.28107 6.4037-7.0281 4.14267-16.6792 3.84805-25.80161-.78763-6.4053-3.25493-6.57361-3.27744-11.39999-1.52444-3.20787 1.16513-10.18022 1.95257-20.20026 2.28137l-15.30154.50208-1.92236 4.26301c-6.04148 13.39763-20.74322 16.54022-26.31207 5.62437-2.63044-5.15608-4.61685-5.71267-6.67345-1.86988-2.14888 4.01523-9.5058 7.75384-13.52225 6.87168-3.04258-.66826-7.91765-5.17205-9.36233-8.6493-.39194-.94338-2.27262.34508-5.43271 3.722-10.15747 10.85435-21.65116 14.44548-31.99374 9.99621-6.51918-2.80447-9.12288-5.26584-11.0479-10.44398-.73526-1.97777-2.52955-6.74504-3.98731-10.59392-3.11164-8.21566-2.3167-10.73125 3.5736-11.30858 3.87782-.38008 6.79443-2.91122 9.62402-8.35208 2.2646-4.35444.95686-9.903163-3.54704-15.050113l-3.72648-4.25855-2.52817 2.47636c-3.39832 3.32869-6.97882 22.871603-8.58428 46.854403-.77536 11.58263-.97658 12.35416-3.30853 12.68576-1.83914.26152-2.62135-.3199-3.01665-2.2423zm171.36641-34.47762c1.87047-2.06684 1.60677-4.55526-.48273-4.55526-1.54471 0-4.49852 3.36535-4.49852 5.12528 0 2.28489 2.67457 1.97883 4.98125-.57002zM2.462746 130.03224c-1.55933598-1.65984-2.46655498-4.04681-2.46273398-6.47968.0049-3.15151 1.02885498-4.83869 5.63197498-9.2803 4.878728-4.70756 6.701303-5.8266 10.191961-6.25781.381925-.0472 3.15678-2.0337 6.166344-4.41451 7.339695-5.806263 15.317281-9.161303 23.176947-9.747263 6.45034-.48089 12.777005-2.11395 24.05796-6.209926 13.443068-4.881015 18.416405-7.015112 20.899006-8.967924 1.44154-1.133918 6.52119-3.334823 11.288105-4.890901 9.08892-2.966921 17.42394-7.112225 17.42394-8.665546 0-.503086.62083-.914703 1.37961-.914703 1.39178 0 15.62788-5.257132 31.13385-11.497164 8.46407-3.406176 19.05961-6.623995 19.05961-5.788317 0 .247511 2.04299-.367422 4.53997-1.366518 3.5142-1.406103 6.4907-1.649286 13.17356-1.076294 4.74847.407134 12.79277.916352 17.87622 1.131596 6.39863.270929 10.16815.99776 12.25038 2.362083 2.55961 1.677125 4.60679 1.866264 13.74099 1.269523 6.13417-.400748 14.81672-.151544 20.26309.581585 5.2414.705537 11.80014 1.347586 14.575 1.426777 2.77485.07919 7.82005.520803 11.21154.981364 3.39148.460562 8.43668 1.049187 11.21153 1.308056 2.77486.25887 7.7825.727744 11.1281 1.041943 3.34559.3142 8.64304 1.319163 11.77211 2.23325 3.12907.914088 14.85994 2.168856 26.06861 2.788374 19.24456 1.063671 21.30482.974941 36.99807-1.593405 28.88715-4.727653 37.76556-6.477879 43.51052-8.577344 3.07448-1.123547 7.41971-2.042813 9.65607-2.042813 5.42196 0 30.75607-6.059722 40.2511-9.627749 5.03083-1.890475 8.61382-2.686144 31.95288-7.095698 6.78298-1.281539 15.61206-3.381787 19.62019-4.667217 9.20252-2.951305 13.0148-4.012603 17.93845-4.993888 2.15823-.430133 4.54814-1.28466 5.31092-1.898948.76279-.614287 2.61972-.807465 4.12653-.429281 1.5068.378183 4.14498.153294 5.86262-.499754 2.52079-.958402 2.80603-1.395349 1.47925-2.266-.90406-.593254-3.77153-.968306-6.37217-.83345-5.82967.302298-7.28785-.859028-3.08499-2.456951 2.42099-.920463 4.48577-.776444 8.93585.623278 6.07838 1.911885 8.0658 1.690105 20.74006-2.314414 13.01523-4.1122503 17.05472-5.0697813 28.02884-6.6440263C618.26788 2.1171367 638.19043.06536867 644.6573.01008867c11.88477-.101599 19.71405.566269 22.37592 1.90873603 1.56751.790555 7.64297 1.745769 13.50099 2.122697 12.08774.777772 28.85132 5.193604 31.3919 8.2691993.92518 1.119997 4.62937 4.425009 8.23155 7.34447 4.88653 3.9604 7.499 5.308109 10.28952 5.308109 2.30601 0 7.94607 2.180443 14.70926 5.686587 7.84875 4.068915 12.57614 5.806614 16.61817 6.10852 6.02919.450332 29.68496 2.287193 42.64708 3.311529 4.31644.341109 8.78629.917104 9.93298 1.27999 1.14671.362886 7.95772.821359 15.13558 1.018829 31.41646.864299 51.63592 1.841529 57.74249 2.790766 6.6538 1.0343 9.92079 3.375743 9.36443 6.711466-.30103 1.804893-.57212 1.814244-30.51203 1.052609-8.01625-.203924-24.91764.03427-37.55865.529315-12.641.495048-23.74043.894416-24.66538.887488-2.42985-.01821-19.42823-2.168287-28.58941-3.616204-4.31645-.682211-10.87519-1.375373-14.575-1.540362-17.91968-.799107-37.21833-7.293911-45.01191-15.148394-3.79412-3.823765-10.37577-7.940909-12.70372-7.946794-4.07211-.01031-17.7873-6.302419-21.90921-10.051298-4.36366-3.968758-8.47267-5.431365-23.77292-8.4620073-5.53095-1.095559-48.90768 2.6637293-60.29067 5.2251513-5.54971 1.248805-14.43586 3.162556-19.747 4.252779-5.31114 1.090222-10.19502 2.314974-10.85307 2.72167-2.19294 1.35531-19.82654 7.617231-21.53357 7.646851-2.66611.04626-11.18172 2.106663-18.49904 4.475953-7.60104 2.461158-16.83116 4.498149-34.75576 7.670239-6.78298 1.200374-16.87336 3.691875-22.42307 5.536669-13.84717 4.602975-32.643 9.00544-38.45519 9.007191-2.65132.000798-6.1896.709399-7.86284 1.574669-1.67326.865269-5.55822 1.898917-8.63327 2.296994-3.07505.398076-8.87037 1.43256-12.8785 2.298853-4.00812.866294-15.94784 2.910708-26.53269 4.543143-16.24362 2.505152-20.14287 2.775547-25.00085 1.733696-3.16561-.678902-9.89311-1.265558-14.94999-1.30368-9.64331-.0727-17.51796-.872077-36.10202-3.664822-6.16635-.926656-14.49091-1.97905-18.49904-2.338653-4.00812-.359605-10.56687-1.247186-14.57499-1.972406-4.00813-.725219-15.86433-1.36258-26.34711-1.416359-11.2092-.0575-20.90677-.64868-23.54423-1.43528-8.44216-2.51781-28.77738-5.085951-34.73111-4.386207-7.47039.877998-20.7745 5.223508-31.33518 10.23498-4.55134 2.159799-8.95425 3.928792-9.78424 3.931097-.82999.0024-3.06466.952787-4.96595 2.11218-1.90127 1.159394-5.18064 2.466283-7.28749 2.904198-2.10684.437914-5.59644 1.988664-7.75467 3.446111-2.15822 1.457446-7.66505 4.190542-12.23741 6.073546-4.57236 1.883004-13.653705 5.890702-20.180769 8.905996-15.261447 7.050298-23.046864 10.188388-25.276795 10.188388-.980203 0-4.653081 1.00904-8.161953 2.242313-3.508871 1.23326-8.051454 2.2423-10.094627 2.2423-2.38015 0-7.791374 2.2155-15.060894 6.16635-6.240318 3.39149-12.052828 6.16634-12.916689 6.16634-4.525935 0-11.549686 6.42232-11.549686 10.56071 0 1.85703 6.700649 3.57335 9.602814 2.45969 1.260503-.48371 1.66283-.11493 1.39453 1.27825-.252898 1.31319-1.479786 1.98997-3.7252 2.05491-1.841459.0533-4.129101.44652-5.083649.87391-1.101764.49331-2.637084-.18257-4.204326-1.85082zM810.58803 48.507526c0-.616634-1.26129-1.121153-2.80288-1.121153s-2.80288.504519-2.80288 1.121153c0 .616635 1.26129 1.121154 2.80288 1.121154s2.80288-.504519 2.80288-1.121154zm-6.72692-.429876c0-.951737-5.33884-1.369123-7.36454-.575754-1.53183.599944-.77132.871082 2.59964.92683 2.6207.04334 4.7649-.114643 4.7649-.351076zm-11.49182-1.464118c-1.07911-.282-2.84493-.282-3.92404 0-1.07911.282002-.1962.51273 1.96202.51273s3.04113-.230728 1.96202-.51273zm-49.05047-9.375734c-5.47054-3.724624-19.73972-8.604648-21.12103-7.223337-.219.218999 1.54266 1.397577 3.91478 2.619062 2.37214 1.221484 5.82654 3.01939 7.67644 3.995344 3.81474 2.012542 12.39678 2.560914 9.52981.608931zm-29.86571-15.077382c-.35494-.924951-1.05718-1.68173-1.56052-1.68173-.50335 0-2.36688-1.221519-4.14117-2.714487-3.97793-3.34721-15.13142-7.375896-20.42028-7.375896h-3.93175l2.49266 2.492669c1.93895 1.938947 13.20554 6.32507 27.9613 10.885425.1348.04166-.0453-.681029-.40024-1.605981zm-465.9163 83.719344c-6.8971-2.45067-8.45728-3.9951-6.46314-6.397913 1.69744-2.04529 7.16074-1.49882 12.47146 1.247473 3.96862 2.05225 4.82049 3.55662 3.15226 5.56673-1.65576 1.99507-2.47947 1.95763-9.16058-.41629z"/>
</svg>
